{"title":"The.Quiet.Ones.2014.AVI.BRRip.1080p.DivX.NLSub.{Th3Sp3cialist}","uid":11052239,"size":2479114997,"categoryP":"video","categoryS":"hd___movies","magnet":"?xt=urn:btih:979a7e06b53093689ceee56569f4ac2d8c36cb75&amp;dn=The.Quiet.Ones.2014.AVI.BRRip.1080p.DivX.NLSub.%7BTh3Sp3cialist%7D&amp;tr=udp%3A%2F%2Ftracker.openbittorrent.com%3A80&amp;tr=udp%3A%2F%2Fopen.demonii.com%3A1337&amp;tr=udp%3A%2F%2Ftracker.coppersurfer.tk%3A6969&amp;tr=udp%3A%2F%2Fexodus.desync.com%3A6969","seeders":0,"leechers":0,"uploader":"HOLLANDmovies","files":-1,"time":1411049026,"description":"THE QUIET ONES DivX 1080p \n\nINFO\n\nThe Quiet Ones (2014)\n98 min - Horror\n\nA university professor and a team of students conduct an experiment on a young woman, uncovering terrifyingly dark, unexpected forces in the process.\n\nDirector: John Pogue\nWriters: Craig Rosenberg (screenplay), Oren Moverman (screenplay),\nStars: Jared Harris, Sam Claflin, Olivia Cooke \n\nGENERAL:\nComplete name : The.Quiet.Ones.2014.AVI.BRRip.1080p.DivX.NLaudio.{Th3Sp3cialist}.avi\nFormat : AVI\nFormat/Info : Audio Video Interleave\nFormat profile : OpenDML\nFile size : 2.28 GiB\nDuration : 1h 38mn\nOverall bit rate : 3 330 Kbps\n\nVideo\nID : 0\nFormat : MPEG-4 Visual\nFormat profile : Advanced Simple@L5\nFormat settings, BVOP : No\nFormat settings, QPel : No\nFormat settings, GMC : No warppoints\nFormat settings, Matrix : Default (H.263)\nCodec ID : XVID\nCodec ID/Hint : XviD\nDuration : 1h 38mn\nBit rate : 2 999 Kbps\nWidth : 1 920 pixels\nHeight : 1 080 pixels\nDisplay aspect ratio : 16:9\nFrame rate : 23.976 fps\nColor space : YUV\nChroma subsampling : 4:2:0\nBit depth : 8 bits\nScan type : Progressive\nCompression mode : Lossy\nBits/(Pixel*Frame) : 0.060\nStream size : 2.06 GiB (90%)\n\nAudio\nID : 1\nFormat : MPEG Audio\nFormat version : Version 1\nFormat profile : Layer 3\nCodec ID : 55\nCodec ID/Hint : MP3\nDuration : 1h 38mn\nBit rate mode : Constant\nBit rate : 320 Kbps\nChannel(s) : 2 channels\nSampling rate : 48.0 KHz\nCompression mode : Lossy\nStream size : 225 MiB (10%)\nAlignment : Aligned on interleaves\nInterleave, duration : 43 ms (1.04 video frame)\n &lt;a href=&quot;\nhttp://bayimg.com/faaikaAGH&quot; rel=&quot;nofollow&quot; target=&quot;_NEW&quot;&gt;\nhttp://bayimg.com/faaikaAGH&lt;/a&gt; &lt;a href=&quot;\nhttp://bayimg.com/faaIMaaGh&quot; rel=&quot;nofollow&quot; target=&quot;_NEW&quot;&gt;\nhttp://bayimg.com/faaIMaaGh&lt;/a&gt; &lt;a href=&quot;\nhttp://bayimg.com/FaAIpaAGH&quot; rel=&quot;nofollow&quot; target=&quot;_NEW&quot;&gt;\nhttp://bayimg.com/FaAIpaAGH&lt;/a&gt;","torrent":{"xt":"urn:btih:979a7e06b53093689ceee56569f4ac2d8c36cb75","amp;dn":"The.Quiet.Ones.2014.AVI.BRRip.1080p.DivX.NLSub.%7BTh3Sp3cialist%7D","amp;tr":["udp%3A%2F%2Ftracker.openbittorrent.com%3A80","udp%3A%2F%2Fopen.demonii.com%3A1337","udp%3A%2F%2Ftracker.coppersurfer.tk%3A6969","udp%3A%2F%2Fexodus.desync.com%3A6969"],"infoHash":"979a7e06b53093689ceee56569f4ac2d8c36cb75","infoHashBuffer":{"type":"Buffer","data":[151,154,126,6,181,48,147,104,156,238,229,101,105,244,172,45,140,54,203,117]},"announce":[],"urlList":[]}}